<svg width="235" height="32" viewBox="0 0 235 32" fill="none" xmlns="http://www.w3.org/2000/svg">
<g opacity="0.8">
<path d="M100.222 11.0469V22.8457H99.2031V11.0469H100.222ZM119 17.835H120.312C120.244 18.4639 120.064 19.0267 119.772 19.5234C119.481 20.0202 119.068 20.4144 118.535 20.7061C118.002 20.9932 117.337 21.1367 116.539 21.1367C115.956 21.1367 115.425 21.0273 114.946 20.8086C114.472 20.5898 114.064 20.2799 113.723 19.8789C113.381 19.4733 113.117 18.988 112.93 18.4229C112.747 17.8532 112.656 17.2197 112.656 16.5225V15.5312C112.656 14.834 112.747 14.2028 112.93 13.6377C113.117 13.068 113.383 12.5804 113.729 12.1748C114.08 11.7692 114.502 11.457 114.994 11.2383C115.486 11.0195 116.04 10.9102 116.655 10.9102C117.407 10.9102 118.043 11.0514 118.562 11.334C119.082 11.6165 119.485 12.0085 119.772 12.5098C120.064 13.0065 120.244 13.583 120.312 14.2393H119C118.936 13.7744 118.818 13.3757 118.645 13.043C118.471 12.7057 118.225 12.446 117.906 12.2637C117.587 12.0814 117.17 11.9902 116.655 11.9902C116.213 11.9902 115.824 12.0745 115.486 12.2432C115.154 12.4118 114.873 12.651 114.646 12.9609C114.422 13.2708 114.254 13.6423 114.14 14.0752C114.026 14.5081 113.969 14.9889 113.969 15.5176V16.5225C113.969 17.0101 114.019 17.4681 114.119 17.8965C114.224 18.3249 114.381 18.7008 114.591 19.0244C114.8 19.348 115.067 19.6032 115.391 19.79C115.714 19.9723 116.097 20.0635 116.539 20.0635C117.1 20.0635 117.546 19.9746 117.879 19.7969C118.212 19.6191 118.462 19.3639 118.631 19.0312C118.804 18.6986 118.927 18.2998 119 17.835ZM126.444 19.291V13.6035H127.716V21H126.506L126.444 19.291ZM126.684 17.7324L127.21 17.7188C127.21 18.2109 127.158 18.6667 127.053 19.0859C126.952 19.5007 126.788 19.8607 126.561 20.166C126.333 20.4714 126.034 20.7106 125.665 20.8838C125.296 21.0524 124.847 21.1367 124.318 21.1367C123.958 21.1367 123.628 21.0843 123.327 20.9795C123.031 20.8747 122.776 20.7129 122.562 20.4941C122.347 20.2754 122.181 19.9906 122.062 19.6396C121.949 19.2887 121.892 18.8672 121.892 18.375V13.6035H123.156V18.3887C123.156 18.7214 123.193 18.9971 123.266 19.2158C123.343 19.43 123.446 19.6009 123.573 19.7285C123.705 19.8516 123.851 19.9382 124.011 19.9883C124.175 20.0384 124.343 20.0635 124.517 20.0635C125.054 20.0635 125.48 19.9609 125.795 19.7559C126.109 19.5462 126.335 19.266 126.472 18.915C126.613 18.5596 126.684 18.1654 126.684 17.7324ZM130.908 15.1826V21H129.644V13.6035H130.84L130.908 15.1826ZM130.607 17.0215L130.081 17.001C130.086 16.4951 130.161 16.028 130.307 15.5996C130.452 15.1667 130.658 14.7907 130.922 14.4717C131.186 14.1527 131.501 13.9066 131.865 13.7334C132.234 13.5557 132.642 13.4668 133.089 13.4668C133.453 13.4668 133.782 13.5169 134.073 13.6172C134.365 13.7129 134.613 13.8678 134.818 14.082C135.028 14.2962 135.188 14.5742 135.297 14.916C135.406 15.2533 135.461 15.6657 135.461 16.1533V21H134.189V16.1396C134.189 15.7523 134.132 15.4424 134.019 15.21C133.905 14.973 133.738 14.8021 133.52 14.6973C133.301 14.5879 133.032 14.5332 132.713 14.5332C132.398 14.5332 132.111 14.5993 131.852 14.7314C131.596 14.8636 131.375 15.0459 131.188 15.2783C131.006 15.5107 130.863 15.7773 130.758 16.0781C130.658 16.3743 130.607 16.6888 130.607 17.0215ZM142.174 13.6035H143.322V20.8428C143.322 21.4945 143.19 22.0505 142.926 22.5107C142.661 22.971 142.292 23.3197 141.818 23.5566C141.349 23.7982 140.807 23.9189 140.191 23.9189C139.936 23.9189 139.635 23.8779 139.289 23.7959C138.947 23.7184 138.61 23.584 138.277 23.3926C137.949 23.2057 137.674 22.9528 137.45 22.6338L138.113 21.8818C138.423 22.2555 138.747 22.5153 139.084 22.6611C139.426 22.807 139.763 22.8799 140.096 22.8799C140.497 22.8799 140.843 22.8047 141.135 22.6543C141.426 22.5039 141.652 22.2806 141.812 21.9844C141.976 21.6927 142.058 21.3327 142.058 20.9043V15.2305L142.174 13.6035ZM137.081 17.3838V17.2402C137.081 16.6751 137.147 16.1624 137.279 15.7021C137.416 15.2373 137.61 14.8385 137.86 14.5059C138.116 14.1732 138.423 13.918 138.783 13.7402C139.143 13.5579 139.549 13.4668 140 13.4668C140.465 13.4668 140.87 13.5488 141.217 13.7129C141.568 13.8724 141.864 14.1071 142.105 14.417C142.352 14.7223 142.545 15.0915 142.687 15.5244C142.828 15.9574 142.926 16.4473 142.98 16.9941V17.623C142.93 18.1654 142.832 18.653 142.687 19.0859C142.545 19.5189 142.352 19.888 142.105 20.1934C141.864 20.4987 141.568 20.7334 141.217 20.8975C140.866 21.057 140.456 21.1367 139.986 21.1367C139.544 21.1367 139.143 21.0433 138.783 20.8564C138.428 20.6696 138.122 20.4076 137.867 20.0703C137.612 19.7331 137.416 19.3366 137.279 18.8809C137.147 18.4206 137.081 17.9215 137.081 17.3838ZM138.346 17.2402V17.3838C138.346 17.7529 138.382 18.0993 138.455 18.4229C138.533 18.7464 138.649 19.0312 138.804 19.2773C138.963 19.5234 139.166 19.7171 139.412 19.8584C139.658 19.9951 139.952 20.0635 140.294 20.0635C140.713 20.0635 141.06 19.9746 141.333 19.7969C141.606 19.6191 141.823 19.3844 141.982 19.0928C142.146 18.8011 142.274 18.4844 142.365 18.1426V16.4951C142.315 16.2445 142.238 16.0029 142.133 15.7705C142.033 15.5335 141.9 15.3239 141.736 15.1416C141.577 14.9548 141.379 14.8066 141.142 14.6973C140.905 14.5879 140.627 14.5332 140.308 14.5332C139.961 14.5332 139.663 14.6061 139.412 14.752C139.166 14.8932 138.963 15.0892 138.804 15.3398C138.649 15.5859 138.533 15.873 138.455 16.2012C138.382 16.5247 138.346 16.8711 138.346 17.2402ZM151.676 20.0977C151.977 20.0977 152.255 20.0361 152.51 19.9131C152.765 19.79 152.975 19.6214 153.139 19.4072C153.303 19.1885 153.396 18.9401 153.419 18.6621H154.622C154.599 19.0996 154.451 19.5075 154.178 19.8857C153.909 20.2594 153.556 20.5625 153.118 20.7949C152.681 21.0228 152.2 21.1367 151.676 21.1367C151.12 21.1367 150.634 21.0387 150.22 20.8428C149.81 20.6468 149.468 20.3779 149.194 20.0361C148.925 19.6943 148.723 19.3024 148.586 18.8604C148.454 18.4137 148.388 17.9421 148.388 17.4453V17.1582C148.388 16.6615 148.454 16.1921 148.586 15.75C148.723 15.3034 148.925 14.9092 149.194 14.5674C149.468 14.2256 149.81 13.9567 150.22 13.7607C150.634 13.5648 151.12 13.4668 151.676 13.4668C152.255 13.4668 152.76 13.5853 153.193 13.8223C153.626 14.0547 153.966 14.3737 154.212 14.7793C154.463 15.1803 154.599 15.6361 154.622 16.1465H153.419C153.396 15.8411 153.31 15.5654 153.159 15.3193C153.013 15.0732 152.813 14.8773 152.558 14.7314C152.307 14.5811 152.013 14.5059 151.676 14.5059C151.288 14.5059 150.963 14.5833 150.698 14.7383C150.438 14.8887 150.231 15.0938 150.076 15.3535C149.926 15.6087 149.816 15.8936 149.748 16.208C149.684 16.5179 149.652 16.8346 149.652 17.1582V17.4453C149.652 17.7689 149.684 18.0879 149.748 18.4023C149.812 18.7168 149.919 19.0016 150.069 19.2568C150.224 19.512 150.432 19.7171 150.691 19.8721C150.956 20.0225 151.284 20.0977 151.676 20.0977ZM160.405 19.7354V15.9277C160.405 15.6361 160.346 15.3831 160.228 15.1689C160.114 14.9502 159.94 14.7816 159.708 14.6631C159.476 14.5446 159.188 14.4854 158.847 14.4854C158.528 14.4854 158.247 14.54 158.006 14.6494C157.769 14.7588 157.582 14.9023 157.445 15.0801C157.313 15.2578 157.247 15.4492 157.247 15.6543H155.982C155.982 15.39 156.051 15.1279 156.188 14.8682C156.324 14.6084 156.52 14.3737 156.775 14.1641C157.035 13.9499 157.345 13.7812 157.705 13.6582C158.07 13.5306 158.475 13.4668 158.922 13.4668C159.46 13.4668 159.934 13.5579 160.344 13.7402C160.758 13.9225 161.082 14.1982 161.314 14.5674C161.551 14.932 161.67 15.39 161.67 15.9414V19.3867C161.67 19.6328 161.69 19.8949 161.731 20.1729C161.777 20.4508 161.843 20.6901 161.93 20.8906V21H160.61C160.547 20.8542 160.496 20.6605 160.46 20.4189C160.424 20.1729 160.405 19.945 160.405 19.7354ZM160.624 16.5156L160.638 17.4043H159.359C158.999 17.4043 158.678 17.4339 158.396 17.4932C158.113 17.5479 157.876 17.6322 157.685 17.7461C157.493 17.86 157.347 18.0036 157.247 18.1768C157.147 18.3454 157.097 18.5436 157.097 18.7715C157.097 19.0039 157.149 19.2158 157.254 19.4072C157.359 19.5986 157.516 19.7513 157.726 19.8652C157.94 19.9746 158.202 20.0293 158.512 20.0293C158.899 20.0293 159.241 19.9473 159.537 19.7832C159.833 19.6191 160.068 19.4186 160.241 19.1816C160.419 18.9447 160.515 18.7145 160.528 18.4912L161.068 19.0996C161.036 19.291 160.95 19.5029 160.809 19.7354C160.667 19.9678 160.478 20.1911 160.241 20.4053C160.009 20.6149 159.731 20.7904 159.407 20.9316C159.088 21.0684 158.728 21.1367 158.327 21.1367C157.826 21.1367 157.386 21.0387 157.008 20.8428C156.634 20.6468 156.342 20.3848 156.133 20.0566C155.928 19.724 155.825 19.3525 155.825 18.9424C155.825 18.5459 155.903 18.1973 156.058 17.8965C156.213 17.5911 156.436 17.3382 156.728 17.1377C157.019 16.9326 157.37 16.7777 157.78 16.6729C158.19 16.568 158.648 16.5156 159.154 16.5156H160.624ZM156.55 12.5098L158.539 10.7188H159.578L161.567 12.5098H160.221L159.059 11.4297L157.896 12.5098H156.55ZM161.062 11.2998L162.025 9.53613H163.393L162.019 11.2998H161.062ZM164.924 15.0254V23.8438H163.652V13.6035H164.814L164.924 15.0254ZM169.907 17.2402V17.3838C169.907 17.9215 169.843 18.4206 169.716 18.8809C169.588 19.3366 169.401 19.7331 169.155 20.0703C168.914 20.4076 168.615 20.6696 168.26 20.8564C167.904 21.0433 167.496 21.1367 167.036 21.1367C166.567 21.1367 166.152 21.0592 165.792 20.9043C165.432 20.7493 165.127 20.5238 164.876 20.2275C164.625 19.9313 164.425 19.5758 164.274 19.1611C164.129 18.7464 164.028 18.2793 163.974 17.7598V16.9941C164.028 16.4473 164.131 15.9574 164.281 15.5244C164.432 15.0915 164.63 14.7223 164.876 14.417C165.127 14.1071 165.43 13.8724 165.785 13.7129C166.141 13.5488 166.551 13.4668 167.016 13.4668C167.48 13.4668 167.893 13.5579 168.253 13.7402C168.613 13.918 168.916 14.1732 169.162 14.5059C169.408 14.8385 169.593 15.2373 169.716 15.7021C169.843 16.1624 169.907 16.6751 169.907 17.2402ZM168.636 17.3838V17.2402C168.636 16.8711 168.597 16.5247 168.52 16.2012C168.442 15.873 168.321 15.5859 168.157 15.3398C167.998 15.0892 167.793 14.8932 167.542 14.752C167.291 14.6061 166.993 14.5332 166.646 14.5332C166.327 14.5332 166.049 14.5879 165.812 14.6973C165.58 14.8066 165.382 14.9548 165.218 15.1416C165.054 15.3239 164.919 15.5335 164.814 15.7705C164.714 16.0029 164.639 16.2445 164.589 16.4951V18.2656C164.68 18.5846 164.808 18.8854 164.972 19.168C165.136 19.446 165.354 19.6715 165.628 19.8447C165.901 20.0133 166.245 20.0977 166.66 20.0977C167.002 20.0977 167.296 20.027 167.542 19.8857C167.793 19.7399 167.998 19.5417 168.157 19.291C168.321 19.0404 168.442 18.7533 168.52 18.4297C168.597 18.1016 168.636 17.7529 168.636 17.3838ZM174.986 10.5H176.258V19.5645L176.148 21H174.986V10.5ZM181.255 17.2402V17.3838C181.255 17.9215 181.191 18.4206 181.063 18.8809C180.936 19.3366 180.749 19.7331 180.503 20.0703C180.257 20.4076 179.956 20.6696 179.601 20.8564C179.245 21.0433 178.837 21.1367 178.377 21.1367C177.908 21.1367 177.495 21.057 177.14 20.8975C176.789 20.7334 176.493 20.4987 176.251 20.1934C176.009 19.888 175.816 19.5189 175.67 19.0859C175.529 18.653 175.431 18.1654 175.376 17.623V16.9941C175.431 16.4473 175.529 15.9574 175.67 15.5244C175.816 15.0915 176.009 14.7223 176.251 14.417C176.493 14.1071 176.789 13.8724 177.14 13.7129C177.491 13.5488 177.898 13.4668 178.363 13.4668C178.828 13.4668 179.241 13.5579 179.601 13.7402C179.961 13.918 180.261 14.1732 180.503 14.5059C180.749 14.8385 180.936 15.2373 181.063 15.7021C181.191 16.1624 181.255 16.6751 181.255 17.2402ZM179.983 17.3838V17.2402C179.983 16.8711 179.949 16.5247 179.881 16.2012C179.812 15.873 179.703 15.5859 179.553 15.3398C179.402 15.0892 179.204 14.8932 178.958 14.752C178.712 14.6061 178.409 14.5332 178.049 14.5332C177.73 14.5332 177.452 14.5879 177.215 14.6973C176.982 14.8066 176.784 14.9548 176.62 15.1416C176.456 15.3239 176.322 15.5335 176.217 15.7705C176.117 16.0029 176.041 16.2445 175.991 16.4951V18.1426C176.064 18.4616 176.183 18.7692 176.347 19.0654C176.515 19.3571 176.739 19.5964 177.017 19.7832C177.299 19.9701 177.648 20.0635 178.062 20.0635C178.404 20.0635 178.696 19.9951 178.938 19.8584C179.184 19.7171 179.382 19.5234 179.532 19.2773C179.687 19.0312 179.801 18.7464 179.874 18.4229C179.947 18.0993 179.983 17.7529 179.983 17.3838ZM189.144 12.79H190.162C190.162 13.2913 190.094 13.7243 189.957 14.0889C189.82 14.4489 189.592 14.7269 189.273 14.9229C188.954 15.1188 188.521 15.2168 187.975 15.2168V14.4238C188.316 14.4238 188.569 14.3555 188.733 14.2188C188.902 14.082 189.011 13.8906 189.062 13.6445C189.116 13.3984 189.144 13.1136 189.144 12.79ZM182.52 17.3838V17.2266C182.52 16.6934 182.597 16.1989 182.752 15.7432C182.907 15.2829 183.13 14.8841 183.422 14.5469C183.714 14.2051 184.067 13.9408 184.481 13.7539C184.896 13.5625 185.361 13.4668 185.876 13.4668C186.396 13.4668 186.863 13.5625 187.277 13.7539C187.697 13.9408 188.052 14.2051 188.344 14.5469C188.635 14.8841 188.859 15.2829 189.014 15.7432C189.169 16.1989 189.246 16.6934 189.246 17.2266V17.3838C189.246 17.917 189.169 18.4115 189.014 18.8672C188.859 19.3229 188.635 19.7217 188.344 20.0635C188.052 20.4007 187.699 20.665 187.284 20.8564C186.874 21.0433 186.409 21.1367 185.89 21.1367C185.37 21.1367 184.903 21.0433 184.488 20.8564C184.074 20.665 183.718 20.4007 183.422 20.0635C183.13 19.7217 182.907 19.3229 182.752 18.8672C182.597 18.4115 182.52 17.917 182.52 17.3838ZM183.784 17.2266V17.3838C183.784 17.7529 183.827 18.1016 183.914 18.4297C184.001 18.7533 184.131 19.0404 184.304 19.291C184.481 19.5417 184.702 19.7399 184.967 19.8857C185.231 20.027 185.539 20.0977 185.89 20.0977C186.236 20.0977 186.539 20.027 186.799 19.8857C187.063 19.7399 187.282 19.5417 187.455 19.291C187.628 19.0404 187.758 18.7533 187.845 18.4297C187.936 18.1016 187.981 17.7529 187.981 17.3838V17.2266C187.981 16.862 187.936 16.5179 187.845 16.1943C187.758 15.8662 187.626 15.5768 187.448 15.3262C187.275 15.071 187.056 14.8704 186.792 14.7246C186.532 14.5788 186.227 14.5059 185.876 14.5059C185.53 14.5059 185.224 14.5788 184.96 14.7246C184.7 14.8704 184.481 15.071 184.304 15.3262C184.131 15.5768 184.001 15.8662 183.914 16.1943C183.827 16.5179 183.784 16.862 183.784 17.2266ZM186.348 12.4004H185.438L185.432 11.3613C185.664 11.3477 185.853 11.3249 185.999 11.293C186.145 11.2565 186.252 11.2041 186.32 11.1357C186.389 11.0628 186.423 10.9671 186.423 10.8486C186.423 10.7529 186.393 10.6732 186.334 10.6094C186.275 10.541 186.193 10.4863 186.088 10.4453C185.983 10.3997 185.862 10.3678 185.726 10.3496C185.589 10.3314 185.443 10.3223 185.288 10.3223L185.336 9.59766C185.673 9.59766 185.969 9.62728 186.225 9.68652C186.484 9.74577 186.701 9.83236 186.874 9.94629C187.052 10.0602 187.184 10.1969 187.271 10.3564C187.362 10.5114 187.407 10.6846 187.407 10.876C187.407 11.2223 187.298 11.4753 187.079 11.6348C186.86 11.7897 186.619 11.8854 186.354 11.9219L186.348 12.4004ZM192.24 13.6035V21H190.969V13.6035H192.24ZM190.873 11.6416C190.873 11.4365 190.935 11.2633 191.058 11.1221C191.185 10.9808 191.372 10.9102 191.618 10.9102C191.86 10.9102 192.044 10.9808 192.172 11.1221C192.304 11.2633 192.37 11.4365 192.37 11.6416C192.37 11.8376 192.304 12.0062 192.172 12.1475C192.044 12.2842 191.86 12.3525 191.618 12.3525C191.372 12.3525 191.185 12.2842 191.058 12.1475C190.935 12.0062 190.873 11.8376 190.873 11.6416ZM203.629 11.0469H204.941V17.7803C204.941 18.5277 204.775 19.1497 204.442 19.6465C204.11 20.1432 203.668 20.5169 203.116 20.7676C202.569 21.0137 201.975 21.1367 201.332 21.1367C200.658 21.1367 200.047 21.0137 199.5 20.7676C198.958 20.5169 198.527 20.1432 198.208 19.6465C197.894 19.1497 197.736 18.5277 197.736 17.7803V11.0469H199.042V17.7803C199.042 18.2998 199.138 18.7282 199.329 19.0654C199.521 19.4027 199.787 19.6533 200.129 19.8174C200.475 19.9814 200.876 20.0635 201.332 20.0635C201.792 20.0635 202.193 19.9814 202.535 19.8174C202.882 19.6533 203.15 19.4027 203.342 19.0654C203.533 18.7282 203.629 18.2998 203.629 17.7803V11.0469ZM208.086 14.7656V21H206.821V13.6035H208.052L208.086 14.7656ZM210.396 13.5625L210.39 14.7383C210.285 14.7155 210.185 14.7018 210.089 14.6973C209.998 14.6882 209.893 14.6836 209.774 14.6836C209.483 14.6836 209.225 14.7292 209.002 14.8203C208.779 14.9115 208.59 15.0391 208.435 15.2031C208.28 15.3672 208.157 15.5632 208.065 15.791C207.979 16.0143 207.922 16.2604 207.895 16.5293L207.539 16.7344C207.539 16.2878 207.582 15.8685 207.669 15.4766C207.76 15.0846 207.899 14.7383 208.086 14.4375C208.273 14.1322 208.51 13.8952 208.797 13.7266C209.089 13.5534 209.435 13.4668 209.836 13.4668C209.927 13.4668 210.032 13.4782 210.15 13.501C210.269 13.5192 210.351 13.5397 210.396 13.5625ZM215.305 16.3447H212.782L212.769 15.2852H215.059C215.437 15.2852 215.767 15.2214 216.05 15.0938C216.332 14.9661 216.551 14.7839 216.706 14.5469C216.866 14.3053 216.945 14.0182 216.945 13.6855C216.945 13.321 216.875 13.0247 216.733 12.7969C216.597 12.5645 216.385 12.3958 216.098 12.291C215.815 12.1816 215.455 12.127 215.018 12.127H213.076V21H211.757V11.0469H215.018C215.528 11.0469 215.984 11.0993 216.385 11.2041C216.786 11.3044 217.125 11.4639 217.403 11.6826C217.686 11.8968 217.9 12.1702 218.046 12.5029C218.192 12.8356 218.265 13.2344 218.265 13.6992C218.265 14.1094 218.16 14.4808 217.95 14.8135C217.741 15.1416 217.449 15.4105 217.075 15.6201C216.706 15.8298 216.273 15.9642 215.776 16.0234L215.305 16.3447ZM215.243 21H212.263L213.008 19.9268H215.243C215.662 19.9268 216.018 19.8538 216.31 19.708C216.606 19.5622 216.831 19.3571 216.986 19.0928C217.141 18.8239 217.219 18.5072 217.219 18.1426C217.219 17.7734 217.153 17.4544 217.021 17.1855C216.888 16.9167 216.681 16.7093 216.398 16.5635C216.116 16.4176 215.751 16.3447 215.305 16.3447H213.425L213.438 15.2852H216.009L216.289 15.668C216.768 15.709 217.173 15.8457 217.506 16.0781C217.839 16.306 218.091 16.5977 218.265 16.9531C218.442 17.3086 218.531 17.7005 218.531 18.1289C218.531 18.7487 218.395 19.2728 218.121 19.7012C217.852 20.125 217.472 20.4486 216.979 20.6719C216.487 20.8906 215.909 21 215.243 21ZM219.953 17.3838V17.2266C219.953 16.6934 220.031 16.1989 220.186 15.7432C220.34 15.2829 220.564 14.8841 220.855 14.5469C221.147 14.2051 221.5 13.9408 221.915 13.7539C222.33 13.5625 222.795 13.4668 223.31 13.4668C223.829 13.4668 224.296 13.5625 224.711 13.7539C225.13 13.9408 225.486 14.2051 225.777 14.5469C226.074 14.8841 226.299 15.2829 226.454 15.7432C226.609 16.1989 226.687 16.6934 226.687 17.2266V17.3838C226.687 17.917 226.609 18.4115 226.454 18.8672C226.299 19.3229 226.074 19.7217 225.777 20.0635C225.486 20.4007 225.132 20.665 224.718 20.8564C224.308 21.0433 223.843 21.1367 223.323 21.1367C222.804 21.1367 222.337 21.0433 221.922 20.8564C221.507 20.665 221.152 20.4007 220.855 20.0635C220.564 19.7217 220.34 19.3229 220.186 18.8672C220.031 18.4115 219.953 17.917 219.953 17.3838ZM221.218 17.2266V17.3838C221.218 17.7529 221.261 18.1016 221.348 18.4297C221.434 18.7533 221.564 19.0404 221.737 19.291C221.915 19.5417 222.136 19.7399 222.4 19.8857C222.665 20.027 222.972 20.0977 223.323 20.0977C223.67 20.0977 223.973 20.027 224.232 19.8857C224.497 19.7399 224.715 19.5417 224.889 19.291C225.062 19.0404 225.192 18.7533 225.278 18.4297C225.369 18.1016 225.415 17.7529 225.415 17.3838V17.2266C225.415 16.862 225.369 16.5179 225.278 16.1943C225.192 15.8662 225.06 15.5768 224.882 15.3262C224.709 15.071 224.49 14.8704 224.226 14.7246C223.966 14.5788 223.66 14.5059 223.31 14.5059C222.963 14.5059 222.658 14.5788 222.394 14.7246C222.134 14.8704 221.915 15.071 221.737 15.3262C221.564 15.5768 221.434 15.8662 221.348 16.1943C221.261 16.5179 221.218 16.862 221.218 17.2266ZM228.977 13.6035L230.597 16.2969L232.237 13.6035H233.721L231.301 17.2539L233.796 21H232.333L230.624 18.2246L228.915 21H227.445L229.934 17.2539L227.521 13.6035H228.977Z" fill="white"/>
<g clip-path="url(#clip0_474_5556)">
<path d="M0 19.9555V21.8814L10.5963 28L21.1935 21.8814V18.9859L9.78577 26.3676L0 19.9555Z" fill="white"/>
<path d="M17.1284 7.29791L12.4159 4.57758L6.48672 10.0438L4.95092 9.3043L9.77705 4L0.195801 9.53154L6.20172 13.0018L17.1284 7.29791Z" fill="white"/>
<path d="M18.0338 7.82153L7.05598 15.4475L0 10.2909V13.2205L7.51047 17.381L21.1935 12.1297V9.64613L18.0338 7.82153Z" fill="white"/>
<path d="M0 14.8122V18.3506L11.5488 24.2628L21.1935 16.5686V13.3871L10.2971 21.0775L0 14.8122Z" fill="white"/>
<path d="M33.659 17.1358C33.6608 17.5627 33.6291 17.9892 33.5643 18.4112C33.4997 18.8323 33.3797 19.243 33.2073 19.6326C32.513 21.1268 31.3007 21.8741 29.5705 21.8748C27.8402 21.8754 26.6276 21.128 25.9326 19.6326C25.7607 19.2435 25.6434 18.8324 25.5842 18.4112C25.5133 17.9898 25.4784 17.5631 25.48 17.1358V9.64612H26.6844V17.1358C26.683 17.5071 26.7096 17.8781 26.764 18.2455C26.8091 18.6156 26.919 18.9749 27.0887 19.3069C27.6272 20.2897 28.4541 20.7812 29.5695 20.7812C30.6849 20.7812 31.5118 20.2897 32.0503 19.3069C32.2196 18.9748 32.3293 18.6155 32.3741 18.2455C32.4342 17.8787 32.4637 17.5075 32.4622 17.1358V9.64612H33.659V17.1358Z" fill="white"/>
<path d="M43.1444 16.0743C42.474 16.7453 41.6288 17.1152 40.6087 17.184L44.0003 21.6617H42.4854L38.4139 16.2258L39.7139 16.2173C40.1478 16.2178 40.5798 16.1592 40.9979 16.0431C42.319 15.6416 42.9796 14.7935 42.9796 13.4989C42.9796 12.4377 42.5409 11.6692 41.6635 11.1933C41.3084 11.0048 40.9244 10.8768 40.5273 10.8145C40.1281 10.7613 39.7255 10.7376 39.3229 10.7435H37.2294V21.6617H36.0278V9.64703H39.0795C39.3485 9.64703 39.5918 9.65271 39.8077 9.66313C40.0879 9.67954 40.3442 9.70069 40.5765 9.72657C41.0795 9.77696 41.5716 9.90472 42.0356 10.1053C43.4616 10.7921 44.1746 11.9334 44.1746 13.5292C44.1746 14.5391 43.8312 15.3869 43.1444 16.0724" fill="white"/>
<path d="M53.574 20.624C53.0493 21.0846 52.4124 21.3988 51.7276 21.5348C51.4034 21.5977 51.0748 21.6347 50.7448 21.6456C50.5914 21.6456 50.4143 21.657 50.2136 21.6617H45.8306V9.64703H49.5318C49.9971 9.64703 50.3512 9.65524 50.5942 9.67165C50.9355 9.68639 51.2749 9.73138 51.6083 9.80611C52.29 9.94871 52.9089 10.3037 53.3761 10.8202C53.8514 11.3435 54.0891 12.0041 54.0891 12.802C54.0891 13.8902 53.6241 14.696 52.6943 15.2193C54.0149 15.6732 54.6752 16.603 54.6752 18.0087C54.6752 19.1285 54.3081 20.0003 53.574 20.624ZM50.7921 12.516C50.6027 12.4005 50.3187 12.3418 49.9522 12.3418H48.7715V14.2128H49.9361C50.7492 14.2128 51.156 13.8931 51.1566 13.2536C51.1566 12.9052 51.0351 12.6593 50.7921 12.516ZM51.292 16.9662C51.0591 16.84 50.7315 16.7769 50.3092 16.7769H48.7715V18.9632H50.2959C50.7283 18.9632 51.0638 18.8839 51.3025 18.7255C51.5928 18.5305 51.738 18.2268 51.738 17.8146C51.738 17.4176 51.5903 17.1335 51.2949 16.9625" fill="white"/>
<path d="M66.6276 20.1079C65.3979 21.2972 63.8971 21.8915 62.1252 21.8909C60.4032 21.8909 58.9268 21.3073 57.6958 20.1401C56.4378 18.9578 55.8087 17.5145 55.8087 15.8101C55.8032 14.9325 55.9618 14.0616 56.2765 13.2423C56.473 12.7582 56.7373 12.3046 57.0614 11.8949C58.3081 10.2537 60.0014 9.43304 62.1413 9.43304C63.9088 9.43304 65.4042 10.0302 66.6276 11.2245C67.8629 12.4239 68.4809 13.9032 68.4815 15.6624C68.4822 17.4217 67.8642 18.9051 66.6276 20.1127V20.1079ZM64.5265 13.2006C64.2374 12.8557 63.8747 12.5799 63.4651 12.3934C63.0555 12.207 62.6093 12.1146 62.1593 12.1231C61.1973 12.1231 60.4048 12.4718 59.7818 13.1693C59.1789 13.8397 58.8775 14.6584 58.8775 15.6255C58.8775 16.614 59.1815 17.4488 59.7893 18.1299C60.4206 18.8439 61.221 19.2005 62.1906 19.1999C62.6362 19.2074 63.0777 19.1144 63.4824 18.9279C63.8872 18.7414 64.2447 18.466 64.5284 18.1224C65.1188 17.4451 65.4355 16.5721 65.4165 15.6738C65.4165 14.7074 65.1205 13.883 64.5284 13.2006" fill="white"/>
<path d="M77.1346 21.6617L74.5355 17.4066L72.0708 21.6617H68.647L72.8472 15.2667L69.1308 9.64801H72.6096L74.6699 13.0794L76.6669 9.64801H80.1229L76.4529 15.3301L80.6058 21.6617H77.1346Z" fill="white"/>
<path d="M82.7338 11.6251H82.4762V12.1979H82.1543V10.6328H82.7357C82.8884 10.6235 83.0396 10.6673 83.1636 10.7568C83.2141 10.7994 83.254 10.8531 83.2801 10.9138C83.3062 10.9744 83.3179 11.0403 83.3142 11.1062C83.3173 11.2001 83.293 11.2929 83.2441 11.3732C83.1924 11.4491 83.1197 11.5083 83.0349 11.5436L83.3729 12.1828V12.1979H83.0273L82.7338 11.6251ZM82.4762 11.3599H82.7366C82.8053 11.3642 82.873 11.3422 82.926 11.2984C82.9485 11.2763 82.9661 11.2497 82.9775 11.2203C82.989 11.1909 82.994 11.1594 82.9923 11.128C82.994 11.0962 82.9894 11.0644 82.9787 11.0345C82.9679 11.0046 82.9513 10.9771 82.9298 10.9537C82.8775 10.9084 82.8094 10.8856 82.7404 10.8903H82.481L82.4762 11.3599Z" fill="white"/>
<path d="M82.7164 13.2101C82.3697 13.2103 82.0306 13.1076 81.7421 12.9152C81.4537 12.7227 81.2288 12.449 81.0958 12.1287C80.9629 11.8084 80.928 11.4559 80.9954 11.1157C81.0628 10.7755 81.2295 10.463 81.4745 10.2176C81.7195 9.97215 82.0318 9.80489 82.3719 9.73694C82.7119 9.66899 83.0645 9.70339 83.385 9.83579C83.7055 9.9682 83.9796 10.1927 84.1725 10.4808C84.3655 10.769 84.4687 11.1078 84.4691 11.4546C84.4693 11.9198 84.2848 12.366 83.9562 12.6952C83.6275 13.0244 83.1816 13.2096 82.7164 13.2101ZM82.7164 9.8961C82.4079 9.89591 82.1063 9.98724 81.8497 10.1585C81.5931 10.3298 81.3931 10.5734 81.2749 10.8584C81.1568 11.1433 81.1258 11.457 81.1859 11.7596C81.2461 12.0622 81.3946 12.3401 81.6128 12.5583C81.8309 12.7764 82.1089 12.925 82.4115 12.9851C82.7141 13.0453 83.0277 13.0143 83.3127 12.8962C83.5977 12.778 83.8412 12.578 84.0125 12.3214C84.1838 12.0648 84.2751 11.7631 84.275 11.4546C84.2739 11.0418 84.1094 10.6461 83.8172 10.3544C83.5251 10.0626 83.1293 9.89849 82.7164 9.89799V9.8961Z" fill="white"/>
</g>
</g>
<defs>
<clipPath id="clip0_474_5556">
<rect width="84.4692" height="24" fill="white" transform="translate(0 4)"/>
</clipPath>
</defs>
</svg>
