<svg width="32" height="32" viewBox="0 0 32 32" fill="none" xmlns="http://www.w3.org/2000/svg">
<path d="M29.75 9.25H2.25C1.7 9.25 1.25 8.8 1.25 8.25C1.25 7.7 1.7 7.25 2.25 7.25H29.75C30.3 7.25 30.75 7.7 30.75 8.25C30.75 8.8 30.3 9.25 29.75 9.25Z" fill="#A78D58"/>
<path d="M16.25 17.25H2.25C1.7 17.25 1.25 16.8 1.25 16.25C1.25 15.7 1.7 15.25 2.25 15.25H16.25C16.8 15.25 17.25 15.7 17.25 16.25C17.25 16.8 16.8 17.25 16.25 17.25Z" fill="#A78D58"/>
<path d="M29.75 25.25H2.25C1.7 25.25 1.25 24.8 1.25 24.25C1.25 23.7 1.7 23.25 2.25 23.25H29.75C30.3 23.25 30.75 23.7 30.75 24.25C30.75 24.8 30.3 25.25 29.75 25.25Z" fill="#A78D58"/>
</svg>
